<svg width="23" height="21" viewBox="0 0 23 21" fill="none" xmlns="http://www.w3.org/2000/svg">
    <path
        d="M11.3961 12.25C11.1613 12.25 10.9318 12.3141 10.7366 12.4343C10.5414 12.5545 10.3892 12.7253 10.2994 12.9252C10.2095 13.125 10.186 13.345 10.2318 13.5571C10.2776 13.7693 10.3907 13.9642 10.5567 14.1171C10.7227 14.2701 10.9342 14.3743 11.1645 14.4165C11.3948 14.4587 11.6335 14.437 11.8504 14.3542C12.0673 14.2715 12.2527 14.1313 12.3831 13.9514C12.5136 13.7715 12.5832 13.5601 12.5832 13.3438C12.5832 13.0537 12.4581 12.7755 12.2355 12.5704C12.0129 12.3652 11.7109 12.25 11.3961 12.25ZM11.3961 10.9375C11.648 10.9375 11.8895 10.8453 12.0676 10.6812C12.2457 10.5171 12.3458 10.2946 12.3458 10.0625V7.4375C12.3458 7.20544 12.2457 6.98288 12.0676 6.81878C11.8895 6.65469 11.648 6.5625 11.3961 6.5625C11.1442 6.5625 10.9027 6.65469 10.7246 6.81878C10.5465 6.98288 10.4464 7.20544 10.4464 7.4375V10.0625C10.4464 10.2946 10.5465 10.5171 10.7246 10.6812C10.9027 10.8453 11.1442 10.9375 11.3961 10.9375ZM11.3961 1.75C9.51784 1.75 7.68175 2.26318 6.12003 3.22464C4.55831 4.1861 3.34109 5.55267 2.62231 7.15152C1.90353 8.75037 1.71546 10.5097 2.08189 12.207C2.44833 13.9044 3.3528 15.4635 4.68093 16.6872C6.00907 17.9109 7.70122 18.7443 9.5434 19.0819C11.3856 19.4195 13.295 19.2462 15.0303 18.5839C16.7656 17.9217 18.2488 16.8002 19.2923 15.3612C20.3358 13.9223 20.8928 12.2306 20.8928 10.5C20.8903 8.18007 19.8889 5.95582 18.1085 4.31537C16.3281 2.67493 13.914 1.75232 11.3961 1.75ZM11.3961 17.5C9.8935 17.5 8.42462 17.0895 7.17525 16.3203C5.92587 15.5511 4.9521 14.4579 4.37707 13.1788C3.80205 11.8997 3.65159 10.4922 3.94474 9.13437C4.23788 7.7765 4.96146 6.52922 6.02397 5.55025C7.08648 4.57129 8.4402 3.9046 9.91394 3.6345C11.3877 3.36441 12.9153 3.50303 14.3035 4.03284C15.6917 4.56266 16.8783 5.45986 17.7131 6.61101C18.5479 7.76215 18.9935 9.11553 18.9935 10.5C18.9909 12.3558 18.1897 14.1349 16.7655 15.4472C15.3412 16.7594 13.4103 17.4977 11.3961 17.5Z"
        fill="black" />
</svg>
