<svg width="24" height="24" viewBox="0 0 19 14" fill="none" xmlns="http://www.w3.org/2000/svg">
    <path
        d="M18.9207 6.65C17.0024 2.54625 13.3936 0 9.5 0C5.60636 0 1.99761 2.54625 0.0792829 6.65C0.026991 6.7604 0 6.87955 0 7C0 7.12045 0.026991 7.2396 0.0792829 7.35C1.99761 11.4537 5.60636 14 9.5 14C13.3936 14 17.0024 11.4537 18.9207 7.35C18.973 7.2396 19 7.12045 19 7C19 6.87955 18.973 6.7604 18.9207 6.65ZM9.5 12.25C6.48955 12.25 3.64054 10.2463 1.99761 7C3.64054 3.75375 6.48955 1.75 9.5 1.75C12.5105 1.75 15.3595 3.75375 17.0024 7C15.3595 10.2463 12.5105 12.25 9.5 12.25ZM9.5 3.5C8.74869 3.5 8.01426 3.70527 7.38957 4.08986C6.76488 4.47444 6.27799 5.02107 5.99048 5.66061C5.70297 6.30015 5.62774 7.00388 5.77431 7.68282C5.92089 8.36175 6.28268 8.98539 6.81393 9.47487C7.34518 9.96436 8.02204 10.2977 8.75891 10.4327C9.49579 10.5678 10.2596 10.4985 10.9537 10.2336C11.6478 9.96867 12.2411 9.52007 12.6585 8.9445C13.0759 8.36892 13.2987 7.69223 13.2987 7C13.2987 6.07174 12.8985 5.1815 12.1861 4.52513C11.4737 3.86875 10.5075 3.5 9.5 3.5ZM9.5 8.75C9.12435 8.75 8.75713 8.64736 8.44478 8.45507C8.13244 8.26278 7.889 7.98947 7.74524 7.6697C7.60148 7.34993 7.56387 6.99806 7.63716 6.65859C7.71044 6.31913 7.89134 6.00731 8.15697 5.76256C8.42259 5.51782 8.76102 5.35115 9.12946 5.28363C9.49789 5.2161 9.87979 5.25076 10.2268 5.38321C10.5739 5.51566 10.8705 5.73997 11.0792 6.02775C11.2879 6.31554 11.3993 6.65388 11.3993 7C11.3993 7.46413 11.1992 7.90925 10.843 8.23744C10.4868 8.56563 10.0037 8.75 9.5 8.75Z"
        fill="black" />
</svg>
