<svg width="41" height="41" viewBox="0 0 41 41" fill="none" xmlns="http://www.w3.org/2000/svg">
<path d="M32.0514 5.0625H8.43462C6.5713 5.0625 5.06079 6.57354 5.06079 8.4375V32.0625C5.06079 33.9265 6.5713 35.4375 8.43462 35.4375H32.0514C33.9147 35.4375 35.4252 33.9265 35.4252 32.0625V8.4375C35.4252 6.57354 33.9147 5.0625 32.0514 5.0625Z" stroke="black" stroke-width="2" stroke-linecap="round" stroke-linejoin="round"/>
<path d="M15.1805 16.875C16.7338 16.875 17.993 15.6158 17.993 14.0625C17.993 12.5092 16.7338 11.25 15.1805 11.25C13.6272 11.25 12.368 12.5092 12.368 14.0625C12.368 15.6158 13.6272 16.875 15.1805 16.875Z" stroke="black" stroke-width="5.6" stroke-linecap="round" stroke-linejoin="round"/>
<path d="M35.4252 25.3125L26.9906 16.875L8.43457 35.4375" stroke="black" stroke-width="2" stroke-linecap="round" stroke-linejoin="round"/>
</svg>
