<svg width="24" height="24" viewBox="0 0 24 24" fill="none" xmlns="http://www.w3.org/2000/svg">
  <path d="M20.153 5.00004C19.0933 3.93725 17.6886 3.28858 16.1927 3.17121C14.6967 3.05384 13.2082 3.47551 11.9958 4.36004C10.7239 3.41368 9.1408 2.98455 7.56528 3.15908C5.98975 3.33361 4.53885 4.09882 3.50474 5.30063C2.47064 6.50244 1.93014 8.05156 1.9921 9.63606C2.05406 11.2206 2.71386 12.7227 3.83865 13.84L10.0465 20.06C10.5663 20.5718 11.2665 20.8587 11.9958 20.8587C12.7252 20.8587 13.4253 20.5718 13.9451 20.06L20.153 13.84C21.3201 12.6653 21.9753 11.0763 21.9753 9.42004C21.9753 7.76377 21.3201 6.17478 20.153 5.00004Z" fill="black"/>
</svg>
