<svg width="24" height="24" viewBox="0 0 24 24" fill="none" xmlns="http://www.w3.org/2000/svg">
    <path
        d="M20.153 5.00004C19.0933 3.93725 17.6886 3.28858 16.1927 3.17121C14.6967 3.05384 13.2082 3.47551 11.9958 4.36004C10.7239 3.41368 9.1408 2.98455 7.56528 3.15908C5.98975 3.33361 4.53885 4.09882 3.50474 5.30063C2.47064 6.50244 1.93014 8.05156 1.9921 9.63606C2.05406 11.2206 2.71386 12.7227 3.83865 13.84L10.0465 20.06C10.5663 20.5718 11.2665 20.8587 11.9958 20.8587C12.7252 20.8587 13.4253 20.5718 13.9451 20.06L20.153 13.84C21.3201 12.6653 21.9753 11.0763 21.9753 9.42004C21.9753 7.76377 21.3201 6.17478 20.153 5.00004ZM18.7435 12.46L12.5356 18.67C12.465 18.7414 12.3809 18.798 12.2882 18.8367C12.1956 18.8753 12.0962 18.8953 11.9958 18.8953C11.8954 18.8953 11.796 18.8753 11.7034 18.8367C11.6107 18.798 11.5266 18.7414 11.456 18.67L5.24816 12.43C4.46419 11.6284 4.0252 10.5515 4.0252 9.43004C4.0252 8.30858 4.46419 7.2317 5.24816 6.43004C6.04704 5.64103 7.12448 5.19861 8.24712 5.19861C9.36975 5.19861 10.4472 5.64103 11.2461 6.43004C11.339 6.52377 11.4496 6.59817 11.5714 6.64893C11.6932 6.6997 11.8239 6.72584 11.9558 6.72584C12.0878 6.72584 12.2185 6.6997 12.3403 6.64893C12.4621 6.59817 12.5726 6.52377 12.6656 6.43004C13.4645 5.64103 14.5419 5.19861 15.6645 5.19861C16.7872 5.19861 17.8646 5.64103 18.6635 6.43004C19.4582 7.22119 19.9116 8.29223 19.9266 9.41373C19.9415 10.5352 19.5168 11.618 18.7435 12.43V12.46Z"
        fill="black" />
</svg>
