<svg width="24" height="24" viewBox="0 0 24 24" fill="none" xmlns="http://www.w3.org/2000/svg">
    <g clip-path="url(#clip0_418_1280)">
        <mask id="mask0_418_1280" style="mask-type:luminance" maskUnits="userSpaceOnUse" x="0" y="0"
            width="24" height="24">
            <path d="M23.8796 0H0.117188V24H23.8796V0Z" fill="white" />
        </mask>
        <g mask="url(#mask0_418_1280)">
            <path
                d="M0.117188 11.52C0.117188 6.08942 0.117188 3.37414 1.78755 1.68707C3.45792 0 6.14632 0 11.5231 0H12.4736C17.8504 0 20.5388 0 22.2092 1.68707C23.8796 3.37414 23.8796 6.08942 23.8796 11.52V12.48C23.8796 17.9106 23.8796 20.6259 22.2092 22.3129C20.5388 24 17.8504 24 12.4736 24H11.5231C6.14632 24 3.45792 24 1.78755 22.3129C0.117188 20.6259 0.117188 17.9106 0.117188 12.48V11.52Z"
                fill="white" />
            <path
                d="M12.7626 17.2908C7.34671 17.2908 4.25763 13.5408 4.12891 7.30078H6.84179C6.93089 11.8808 8.93085 13.8208 10.515 14.2208V7.30078H13.0695V11.2507C14.6339 11.0808 16.2773 9.28078 16.8317 7.30078H19.3863C18.9605 9.74079 17.1783 11.5408 15.911 12.2808C17.1783 12.8808 19.2081 14.4508 19.9804 17.2908H17.1684C16.5645 15.3908 15.0596 13.9208 13.0695 13.7208V17.2908H12.7626Z"
                fill="#0077FF" />
        </g>
    </g>
    <defs>
        <clipPath id="clip0_418_1280">
            <rect width="24" height="24" fill="white" />
        </clipPath>
    </defs>
</svg>
