<svg xmlns="http://www.w3.org/2000/svg" width="32" height="32" fill="none" viewBox="0 0 32 32"><path fill="#000" d="M1.99997 29C1.85885 29.0009 1.71916 28.9718 1.59006 28.9149C1.46096 28.8579 1.34539 28.7742 1.25094 28.6694C1.15648 28.5645 1.08529 28.4409 1.04203 28.3065C0.998778 28.1722 0.984442 28.0303 0.999967 27.89L1.76997 20.89C1.79738 20.6663 1.89957 20.4584 2.05997 20.3L18.42 3.94001C18.7172 3.64218 19.0702 3.4059 19.4589 3.24469C19.8476 3.08347 20.2642 3.00049 20.685 3.00049C21.1057 3.00049 21.5224 3.08347 21.911 3.24469C22.2997 3.4059 22.6527 3.64218 22.95 3.94001L26.06 7.05001C26.3578 7.34724 26.5941 7.70029 26.7553 8.08894C26.9165 8.4776 26.9995 8.89424 26.9995 9.31501C26.9995 9.73577 26.9165 10.1524 26.7553 10.5411C26.5941 10.9297 26.3578 11.2828 26.06 11.58L9.70997 27.93C9.5516 28.0904 9.3437 28.1926 9.11997 28.22L2.11997 28.99L1.99997 29ZM3.72997 21.45L3.12997 26.87L8.54997 26.27L24.65 10.17C24.7618 10.0585 24.8506 9.92605 24.9112 9.78019C24.9717 9.63433 25.0029 9.47794 25.0029 9.32001C25.0029 9.16207 24.9717 9.00569 24.9112 8.85982C24.8506 8.71396 24.7618 8.58149 24.65 8.47001L21.53 5.35001C21.4185 5.23814 21.286 5.14937 21.1402 5.0888C20.9943 5.02824 20.8379 4.99706 20.68 4.99706C20.522 4.99706 20.3656 5.02824 20.2198 5.0888C20.0739 5.14937 19.9415 5.23814 19.83 5.35001L3.72997 21.45Z"/><path fill="#000" d="M23 14.21C22.868 14.211 22.738 14.186 22.616 14.136 22.494 14.086 22.383 14.013 22.29 13.92L16.08 7.69C15.987 7.597 15.913 7.486 15.862 7.364 15.812 7.242 15.786 7.112 15.786 6.98 15.786 6.848 15.812 6.718 15.862 6.596 15.913 6.474 15.987 6.363 16.08 6.27 16.173 6.177 16.284 6.103 16.406 6.052 16.528 6.002 16.658 5.976 16.79 5.976 16.922 5.976 17.052 6.002 17.174 6.052 17.296 6.103 17.407 6.177 17.5 6.27L23.73 12.5C23.824 12.593 23.898 12.704 23.949 12.825 24 12.947 24.026 13.078 24.026 13.21 24.026 13.342 24 13.473 23.949 13.595 23.898 13.716 23.824 13.827 23.73 13.92 23.634 14.015 23.52 14.09 23.395 14.14 23.269 14.19 23.135 14.213 23 14.21ZM16.085 12.504 8.3 20.289 9.714 21.703 17.499 13.918 16.085 12.504ZM30 29H14C13.735 29 13.48 28.895 13.293 28.707 13.105 28.52 13 28.265 13 28 13 27.735 13.105 27.48 13.293 27.293 13.48 27.105 13.735 27 14 27H30C30.265 27 30.52 27.105 30.707 27.293 30.895 27.48 31 27.735 31 28 31 28.265 30.895 28.52 30.707 28.707 30.52 28.895 30.265 29 30 29Z"/></svg>