<svg xmlns="http://www.w3.org/2000/svg" width="20" height="20" fill="none" viewBox="0 0 20 20"><path fill="#9b9b9b" d="M18.2159 10.6614C18.0556 10.4789 17.9672 10.2443 17.9672 10.0014C17.9672 9.75845 18.0556 9.52385 18.2159 9.34136L19.4954 7.90136C19.6364 7.74403 19.724 7.54606 19.7455 7.33587C19.7671 7.12567 19.7215 6.91405 19.6154 6.73136L17.6161 3.27136C17.511 3.08888 17.3511 2.94424 17.159 2.85805C16.9669 2.77186 16.7526 2.74852 16.5465 2.79136L14.6671 3.17136C14.428 3.22079 14.179 3.18095 13.9672 3.05936C13.7555 2.93777 13.5955 2.74284 13.5175 2.51136L12.9077 0.68136C12.8407 0.482739 12.7129 0.310225 12.5425 0.188202C12.3721 0.0661789 12.1676 0.000818796 11.9581 0.00135996H7.95945C7.74146 -0.0100221 7.52574 0.0502863 7.34523 0.173074C7.16472 0.295862 7.02935 0.474379 6.9598 0.68136L6.39999 2.51136C6.32202 2.74284 6.16205 2.93777 5.95026 3.05936C5.73848 3.18095 5.48953 3.22079 5.25039 3.17136L3.32107 2.79136C3.12569 2.76374 2.9265 2.79458 2.74861 2.88C2.57072 2.96542 2.42208 3.10159 2.32142 3.27136L0.322112 6.73136C0.21331 6.91201 0.164389 7.12245 0.182343 7.33258C0.200297 7.54272 0.284207 7.7418 0.422077 7.90136L1.69163 9.34136C1.8519 9.52385 1.94028 9.75845 1.94028 10.0014C1.94028 10.2443 1.8519 10.4789 1.69163 10.6614L0.422077 12.1014C0.284207 12.2609 0.200297 12.46 0.182343 12.6701C0.164389 12.8803 0.21331 13.0907 0.322112 13.2714L2.32142 16.7314C2.42648 16.9138 2.58644 17.0585 2.77851 17.1447C2.97057 17.2309 3.18494 17.2542 3.39104 17.2114L5.27039 16.8314C5.50952 16.7819 5.75847 16.8218 5.97026 16.9434C6.18204 17.0649 6.34202 17.2599 6.41999 17.4914L7.02977 19.3214C7.09933 19.5283 7.2347 19.7069 7.41521 19.8296C7.59571 19.9524 7.81144 20.0127 8.02943 20.0014H12.028C12.2376 20.0019 12.442 19.9365 12.6125 19.8145C12.7829 19.6925 12.9106 19.52 12.9777 19.3214L13.5875 17.4914C13.6655 17.2599 13.8254 17.0649 14.0372 16.9434C14.249 16.8218 14.498 16.7819 14.7371 16.8314L16.6164 17.2114C16.8225 17.2542 17.0369 17.2309 17.229 17.1447C17.421 17.0585 17.581 16.9138 17.6861 16.7314L19.6854 13.2714C19.7915 13.0887 19.8371 12.877 19.8155 12.6669C19.794 12.4567 19.7064 12.2587 19.5654 12.1014L18.2159 10.6614ZM16.7264 12.0014L17.5261 12.9014L16.2466 15.1214L15.067 14.8814C14.347 14.7341 13.5981 14.8565 12.9623 15.2252C12.3265 15.5938 11.8482 16.1832 11.6182 16.8814L11.2383 18.0014H8.6792L8.31932 16.8614C8.08926 16.1632 7.61095 15.5738 6.9752 15.2052C6.33944 14.8365 5.5905 14.7141 4.87053 14.8614L3.69094 15.1014L2.39139 12.8914L3.19111 11.9914C3.6829 11.4413 3.95478 10.7293 3.95478 9.99136C3.95478 9.25343 3.6829 8.54138 3.19111 7.99136L2.39139 7.09136L3.67094 4.89136L4.85053 5.13136C5.5705 5.27858 6.31945 5.15624 6.9552 4.78756C7.59096 4.41888 8.06927 3.82952 8.29933 3.13136L8.6792 2.00136H11.2383L11.6182 3.14136C11.8482 3.83952 12.3265 4.42888 12.9623 4.79756C13.5981 5.16624 14.347 5.28858 15.067 5.14136L16.2466 4.90136L17.5261 7.12136L16.7264 8.02136C16.2401 8.57012 15.9716 9.27804 15.9716 10.0114C15.9716 10.7447 16.2401 11.4526 16.7264 12.0014ZM9.95875 6.00136C9.1679 6.00136 8.39481 6.23596 7.73725 6.67548C7.07968 7.11501 6.56717 7.73972 6.26452 8.47063C5.96188 9.20153 5.88269 10.0058 6.03698 10.7817C6.19127 11.5576 6.5721 12.2704 7.13131 12.8298C7.69053 13.3892 8.40301 13.7702 9.17866 13.9245C9.95432 14.0788 10.7583 13.9996 11.489 13.6969C12.2196 13.3941 12.8441 12.8814 13.2835 12.2236C13.7228 11.5658 13.9574 10.7925 13.9574 10.0014C13.9574 8.94049 13.5361 7.92308 12.7862 7.17293C12.0363 6.42279 11.0192 6.00136 9.95875 6.00136ZM9.95875 12.0014C9.56333 12.0014 9.17678 11.8841 8.848 11.6643C8.51922 11.4445 8.26296 11.1322 8.11164 10.7667C7.96032 10.4013 7.92072 9.99914 7.99787 9.61118C8.07501 9.22322 8.26542 8.86685 8.54503 8.58715C8.82464 8.30744 9.18088 8.11696 9.56871 8.03979C9.95654 7.96262 10.3585 8.00223 10.7239 8.1536C11.0892 8.30498 11.4014 8.56132 11.6211 8.89022C11.8408 9.21912 11.9581 9.6058 11.9581 10.0014C11.9581 10.5318 11.7474 11.0405 11.3725 11.4156C10.9975 11.7906 10.489 12.0014 9.95875 12.0014Z"/></svg>